<?xml version="1.0" encoding="utf-8"?>
<!-- Generator: Adobe Illustrator 25.4.1, SVG Export Plug-In . SVG Version: 6.00 Build 0)  -->
<svg version="1.1" id="Layer_1" xmlns="http://www.w3.org/2000/svg" xmlns:xlink="http://www.w3.org/1999/xlink" x="0px" y="0px"
	 viewBox="0 0 30 30" style="enable-background:new 0 0 30 30;" xml:space="preserve">
<style type="text/css">
	.st0{display:none;fill:#4375BB;}
	.st1{fill:#4375BB;}
</style>
<path class="st0" d="M15.21,3.21c-6.63,0-12,5.37-12,12v9.33c0,1.47,1.2,2.67,2.67,2.67h5.33V16.54H5.88v-1.33
	c0-5.16,4.17-9.33,9.33-9.33s9.33,4.17,9.33,9.33v1.33h-5.33v10.67h5.33c1.47,0,2.67-1.2,2.67-2.67v-9.33
	C27.21,8.58,21.84,3.21,15.21,3.21z"/>
<path class="st1" d="M9.49,17.09l3.77-3.77L3.91,3.97c-2.08,2.08-2.08,5.45,0,7.55L9.49,17.09z M18.53,14.68
	c2.04,0.95,4.91,0.28,7.03-1.84c2.55-2.55,3.04-6.2,1.08-8.16c-1.95-1.95-5.6-1.47-8.16,1.08c-2.12,2.12-2.79,4.99-1.84,7.03
	L3.63,25.8l1.88,1.88l9.19-9.16l9.17,9.17l1.88-1.88l-9.17-9.17L18.53,14.68z"/>
</svg>
