<?xml version="1.0" encoding="utf-8"?>
<!-- Generator: Adobe Illustrator 25.4.1, SVG Export Plug-In . SVG Version: 6.00 Build 0)  -->
<svg version="1.1" id="Layer_1" xmlns="http://www.w3.org/2000/svg" xmlns:xlink="http://www.w3.org/1999/xlink" x="0px" y="0px"
	 viewBox="0 0 100 100" style="enable-background:new 0 0 100 100;" xml:space="preserve">
<style type="text/css">
	.st0{fill:#2C76B4;}
</style>
<path class="st0" d="M32.97,20.77h-11.2c-1.64,0-2.97,1.33-2.97,2.96v10.95h-0.29c-0.66,0-1.2,0.53-1.2,1.19v7.24
	c0,0.66,0.54,1.19,1.2,1.19h0.29v1.33c0,1.63,1.33,2.96,2.97,2.96h15.28c1.63,0,2.97-1.33,2.97-2.96V27.78L32.97,20.77z
	 M23.03,41.27c0.34,0,0.72-0.07,0.95-0.16l0.17,0.89c-0.21,0.1-0.68,0.22-1.29,0.22c-1.74,0-2.63-1.08-2.63-2.51
	c0-1.71,1.22-2.67,2.75-2.67c0.59,0,1.04,0.12,1.24,0.22l-0.23,0.9c-0.23-0.1-0.55-0.19-0.95-0.19c-0.9,0-1.6,0.54-1.6,1.66
	C21.42,40.64,22.02,41.27,23.03,41.27z M37.05,46.78H21.78c-0.63,0-1.15-0.51-1.15-1.15v-1.33h14.24c0.66,0,1.2-0.53,1.2-1.19v-7.24
	c0-0.66-0.54-1.19-1.2-1.19H20.63V23.73c0-0.63,0.52-1.15,1.15-1.15l10.52-0.01v3.88c0,1.13,0.92,2.05,2.06,2.05l3.81-0.01
	l0.04,17.14C38.2,46.27,37.68,46.78,37.05,46.78z M26.15,40.03c-0.84-0.29-1.38-0.75-1.38-1.48c0-0.86,0.72-1.51,1.9-1.51
	c0.57,0,0.99,0.12,1.28,0.25l-0.25,0.92c-0.2-0.1-0.56-0.24-1.05-0.24c-0.49,0-0.73,0.22-0.73,0.48c0,0.32,0.28,0.46,0.93,0.71
	c0.89,0.33,1.31,0.79,1.31,1.5c0,0.84-0.65,1.56-2.03,1.56c-0.57,0-1.14-0.15-1.42-0.31l0.23-0.94c0.31,0.16,0.78,0.31,1.26,0.31
	c0.52,0,0.8-0.22,0.8-0.54C27,40.42,26.76,40.24,26.15,40.03z M30.18,40.03c-0.84-0.29-1.38-0.75-1.38-1.48
	c0-0.86,0.72-1.51,1.9-1.51c0.57,0,0.98,0.12,1.28,0.25l-0.25,0.92c-0.2-0.1-0.56-0.24-1.05-0.24c-0.49,0-0.73,0.22-0.73,0.48
	c0,0.32,0.28,0.46,0.93,0.71c0.89,0.33,1.31,0.79,1.31,1.5c0,0.84-0.65,1.56-2.03,1.56c-0.57,0-1.14-0.15-1.43-0.31l0.23-0.94
	c0.31,0.16,0.78,0.31,1.26,0.31c0.52,0,0.8-0.22,0.8-0.54C31.03,40.42,30.79,40.24,30.18,40.03z"/>
<path class="st0" d="M37.4,50.67l2.12,24.75l9.81,3.25l9.88-3.25l2.19-24.75H37.4z M56.65,58.67h-11.5l0.25,3.12h11l-0.88,9.25
	l-6.12,1.69h-0.06l-6.19-1.69l-0.38-4.75h3l0.25,2.38l3.31,0.94l3.38-0.94l0.38-3.88H42.65l-0.81-9.06H56.9L56.65,58.67z"/>
<path class="st0" d="M82.36,20.68h-22c-1.69,0-3,1.38-3,3v22c0,1.69,1.31,3,3,3h22c1.62,0,3-1.31,3-3v-22
	C85.36,22.06,83.98,20.68,82.36,20.68z M72.54,42.56c0,2.69-1.56,3.94-3.94,3.94c-2.06,0-3.31-1.06-3.94-2.38l2.19-1.31
	c0.38,0.75,0.75,1.38,1.69,1.38c0.81,0,1.38-0.38,1.38-1.69v-8.94h2.62V42.56z M78.79,46.49c-2.44,0-4-1.12-4.81-2.69l2.19-1.19
	c0.56,0.88,1.25,1.56,2.56,1.56c1.06,0,1.81-0.56,1.81-1.31c0-0.88-0.75-1.19-1.94-1.75l-0.69-0.25c-1.88-0.81-3.12-1.81-3.12-4
	c0-1.94,1.5-3.44,3.88-3.44c1.62,0,2.88,0.56,3.69,2.06l-2,1.31c-0.5-0.75-0.94-1.12-1.75-1.12c-0.75,0-1.25,0.5-1.25,1.12
	c0,0.81,0.5,1.12,1.62,1.62l0.69,0.31c2.25,0.94,3.5,1.94,3.5,4.12C83.17,45.24,81.29,46.49,78.79,46.49z"/>
</svg>
